<?xml version="1.0" encoding="UTF-8"?><svg id="Layer_2" xmlns="http://www.w3.org/2000/svg" viewBox="0 0 96.6 25.47"><g id="Top"><g id="g31649"><g id="g31655"><path id="path31657" d="M87.72,4.52h8.85l-.5-4.15h-13.5l-.03,24.6h13.39s.67-4.05.67-4.05h-8.85v-7.83h6.61v-4.09h-6.65s0-4.48,0-4.48ZM81.27,23.22l-6.37-4.88s6.28-1.91,6.1-8.01c-.14-3.09-1.27-5.43-4.75-7.45-3.78-2.19-11.38-2.56-11.38-2.56l.02,24.62h5.26v-4.86l6.69,4.99,4.43-1.86ZM73.78,14.67c-2.06.87-3.69,1.31-3.69,1.31V5.03s1.91.17,3.66,1.02c1.77.86,2.92,2.51,2.92,4.24,0,2.11-.86,3.52-2.89,4.38M57.8,24.97h5.23V.33h-5.23v24.64ZM56.5,10.39c-.09-3-1.3-5.48-4.54-7.48-3.83-2.37-11.53-2.57-11.53-2.57v24.61s5.25,0,5.25,0v-4.87s4.16-.98,7.1-2.94c2.67-1.78,3.8-3.89,3.72-6.74M52.22,10.53c0,1.66-.69,2.86-2.21,3.76-1.84,1.1-4.38,1.68-4.38,1.68V5.03s2.66.17,4.53,1.56c1.41,1.05,2.05,2.44,2.05,3.94M33.81,24.96l5.23-.05-1.58-24.91-10.14,16.84L16.74.05l-1.58,24.91,5.23-.02.49-8.73,6.3,9.26,6.08-9.14.53,8.64h0ZM5.22,20.92v-7.75h6.61v-4.09h-6.65v-4.56h8.85l-.5-4.15H.03l-.03,24.6h13.39s.67-4.05.67-4.05H5.22h0Z" style="fill:#fff;"/></g></g></g></svg>